#!OML:ASF I:\Random Stuff\random\construction\7_22_03\Session 2\subj1.ASF
:FULLY-SPECIFIED
:DEGREES
1050
root -12.8548 17.8093 -0.636542 -343.53 103.687 -350.769
lowerback 6.74049 -0.967001 -5.50098
upperback 2.5321 -1.55923 0.444927
thorax -0.994633 -0.776008 3.66343
lowerneck -20.0662 2.52433 3.94845
upperneck 44.4753 2.95819 4.74503
head 21.4108 3.19448 2.75915
rclavicle -4.96962e-015 2.70347e-014
rhumerus -45.4482 1.02072 -74.9033
rradius 45.7586
rwrist 4.01586
rhand -8.49962 16.5997
rfingers 7.12502
rthumb 17.4281 -12.639
lclavicle -4.96962e-015 2.70347e-014
lhumerus -29.0081 -11.7107 85.3326
lradius 33.174
lwrist 14.1487
lhand -18.3702 54.7961
lfingers 7.12502
lthumb 7.91308 84.628
rfemur -22.077 -8.91189 21.1249
rtibia 58.6955
rfoot -7.88917 0.653438
rtoes -9.74228
lfemur -19.9096 -1.47718 -18.7517
ltibia 19.9899
lfoot -7.50238 4.41865
ltoes -24.1386
1051
root -12.9441 17.8265 -0.567368 -343.767 103.522 -350.798
lowerback 6.44796 -0.656609 -5.35196
upperback 2.42924 -1.12978 0.310953
thorax -0.989686 -0.560374 3.40635
lowerneck -20.1185 2.38609 3.98808
upperneck 44.6724 2.75613 4.78954
head 21.5811 3.15104 2.75776
rclavicle 4.77083e-015 -2.38542e-015
rhumerus -45.2737 0.731059 -74.733
rradius 45.8208
rwrist 3.36524
rhand -10.5656 16.7422
rfingers 7.12502
rthumb 15.4389 -12.6612
lclavicle 4.77083e-015 -2.38542e-015
lhumerus -29.346 -11.5002 85.1486
lradius 33.3232
lwrist 14.6771
lhand -18.2203 54.8491
lfingers 7.12502
lthumb 8.05776 84.6755
rfemur -19.8424 -8.92823 20.4675
rtibia 58.8995
rfoot -7.5262 1.0278
rtoes -9.36084
lfemur -19.4626 -1.60295 -18.547
ltibia 18.9351
lfoot -6.71637 4.58918
ltoes -23.5243
1052
root -13.0386 17.835 -0.488349 -344.118 103.415 -350.955
lowerback 6.20816 -0.339571 -5.18887
upperback 2.28175 -0.696317 0.160272
thorax -1.0563 -0.340296 3.12695
lowerneck -20.0374 2.24311 4.05829
upperneck 44.7437 2.56928 4.7437
head 21.6174 3.10567 2.68796
rclavicle 2.127e-014 -4.77083e-015
rhumerus -45.2909 0.0981336 -74.408
rradius 46.1075
rwrist 3.09012
rhand -12.0105 16.8323
rfingers 7.12502
rthumb 14.0469 -12.673
lclavicle 2.127e-014 -4.77083e-015
lhumerus -29.7481 -11.5024 84.968
lradius 33.5745
lwrist 15.3795
lhand -17.7755 55.0574
lfingers 7.12502
lthumb 8.48698 84.8669
rfemur -17.519 -8.94613 19.8723
rtibia 58.5137
rfoot -7.2255 1.07198
rtoes -9.90519
lfemur -19.1695 -1.66888 -18.3612
ltibia 18.0254
lfoot -5.83993 4.6152
ltoes -23.561
1053
root -13.1351 17.8415 -0.40464 -344.414 103.354 -351.089
lowerback 5.95548 0.0309239 -4.87742
upperback 2.13918 -0.183309 -0.0885511
thorax -1.11357 -0.0802679 2.65865
lowerneck -20.0465 2.00786 4.12544
upperneck 44.7891 2.17022 4.80898
head 21.6673 2.99722 2.63106
rclavicle 1.39149e-014 -5.56597e-015
rhumerus -45.3641 -0.544486 -74.2382
rradius 46.3574
rwrist 2.71175
rhand -13.0501 16.9326
rfingers 7.12502
rthumb 13.0449 -12.6395
lclavicle 1.39149e-014 -5.56597e-015
lhumerus -30.1508 -12.0914 84.7862
lradius 33.9914
lwrist 16.2886
lhand -17.6321 55.2205
lfingers 7.12502
lthumb 8.62534 85.0243
rfemur -15.1401 -8.94613 19.3698
rtibia 57.5135
rfoot -7.09469 0.847809
rtoes -11.2973
lfemur -18.9972 -1.76448 -18.1393
ltibia 17.2512
lfoot -5.02661 4.64276
ltoes -23.569
1054
root -13.2302 17.8438 -0.323083 -344.459 103.1 -350.942
lowerback 5.7181 0.228742 -4.72443
upperback 2.09411 0.0970004 -0.106115
thorax -1.05117 0.0581066 2.5356
lowerneck -20.3838 1.97728 3.78094
upperneck 44.9229 2.24735 4.85093
head 21.8621 2.97386 2.76161
rclavicle -1.39149e-014 -1.19271e-014
rhumerus -44.8731 0.168056 -74.2945
rradius 46.4644
rwrist 1.98736
rhand -13.917 16.8489
rfingers 7.12502
rthumb 12.2091 -12.7747
lclavicle -1.39149e-014 -1.19271e-014
lhumerus -30.421 -11.6673 84.5927
lradius 34.3961
lwrist 16.9368
lhand -17.7462 54.929
lfingers 7.12502
lthumb 8.51527 84.7373
rfemur -12.6654 -8.65541 18.9113
rtibia 55.8761
rfoot -6.97435 0.51965
rtoes -11.0299
lfemur -18.8709 -1.72097 -17.8976
ltibia 16.6893
lfoot -4.48683 4.96482
ltoes -24.9081
1055
root -13.3413 17.8414 -0.231177 -344.053 102.895 -350.535
lowerback 5.49502 0.529201 -4.39229
upperback 1.83053 0.509613 -0.212812
thorax -1.22861 0.269611 2.21219
lowerneck -20.3695 1.82011 3.61038
upperneck 45.0452 2.08003 4.93858
head 21.9498 2.91156 2.81801
rclavicle -4.35338e-014 7.95139e-016
rhumerus -44.6618 0.570208 -74.3911
rradius 46.5372
rwrist 1.40841
rhand -14.3899 16.6595
rfingers 7.12502
rthumb 11.7532 -12.9908
lclavicle -4.35338e-014 7.95139e-016
lhumerus -30.8578 -11.689 84.4398
lradius 34.8333
lwrist 17.5805
lhand -17.8633 54.8333
lfingers 7.12502
lthumb 8.40225 84.6461
rfemur -10.3999 -8.18984 18.6821
rtibia 53.6181
rfoot -6.67506 -0.0783204
rtoes -9.94799
lfemur -19.2036 -1.69263 -17.5435
ltibia 16.4436
lfoot -4.04702 5.36988
ltoes -26.414
1056
root -13.4561 17.8308 -0.128859 -343.575 102.756 -350.073
lowerback 5.19918 0.943249 -3.92124
upperback 1.66711 1.08764 -0.451485
thorax -1.26073 0.559728 1.66678
lowerneck -20.4669 1.67289 4.06274
upperneck 45.0664 1.82575 4.57944
head 22.0235 2.86182 2.49693
rclavicle 8.54774e-015 -1.51076e-014
rhumerus -44.3512 0.410914 -74.4949
rradius 46.5743
rwrist 1.12849
rhand -14.3747 16.5196
rfingers 7.12502
rthumb 11.7678 -13.1298
lclavicle 8.54774e-015 -1.51076e-014
lhumerus -31.0151 -12.2359 84.2055
lradius 35.2799
lwrist 18.1818
lhand -17.9834 54.7755
lfingers 7.12502
lthumb 8.28637 84.5929
rfemur -8.08643 -7.52962 18.6433
rtibia 50.7043
rfoot -6.16783 -0.927587
rtoes -9.89334
lfemur -19.7694 -1.77346 -17.1045
ltibia 16.5664
lfoot -3.58879 5.41934
ltoes -25.1868
1057
root -13.5828 17.8086 -0.0166778 -343.204 102.762 -349.742
lowerback 4.96184 1.17367 -3.54016
upperback 1.55228 1.41647 -0.520499
thorax -1.2554 0.723544 1.36464
lowerneck -20.4814 1.8124 5.12318
upperneck 45.0012 2.31924 2.98342
head 22.022 3.00879 1.56212
rclavicle -1.47101e-014 -1.03368e-014
rhumerus -43.8142 0.943441 -74.6171
rradius 46.7339
rwrist 0.911346
rhand -14.2399 16.4077
rfingers 7.12502
rthumb 11.8978 -13.2342
lclavicle -1.47101e-014 -1.03368e-014
lhumerus -31.3099 -12.4927 84.0036
lradius 35.9771
lwrist 18.6725
lhand -17.9541 54.4971
lfingers 7.12502
lthumb 8.31463 84.3135
rfemur -5.75984 -6.74856 18.7557
rtibia 47.134
rfoot -5.24991 -1.76342
rtoes -10.8283
lfemur -20.6374 -1.90887 -16.6341
ltibia 17.0817
lfoot -3.3349 5.51749
ltoes -24.5543
1058
root -13.7202 17.7789 0.0997179 -342.558 102.795 -349.238
lowerback 4.72848 1.37306 -3.09042
upperback 1.45222 1.70658 -0.545366
thorax -1.22947 0.867235 1.07369
lowerneck -20.746 1.91562 5.01411
upperneck 44.9467 2.48651 3.037
head 22.0618 3.05592 1.65592
rclavicle -4.58199e-014 -7.95139e-015
rhumerus -43.1135 1.73735 -74.7939
rradius 46.9891
rwrist 0.632679
rhand -13.9836 16.1794
rfingers 7.12502
rthumb 12.1449 -13.4481
lclavicle -4.58199e-014 -7.95139e-015
lhumerus -31.6194 -12.8515 83.7981
lradius 36.9656
lwrist 19.1734
lhand -17.7147 54.5684
lfingers 7.12502
lthumb 8.54567 84.3755
rfemur -3.54764 -5.73017 19.0326
rtibia 42.921
rfoot -3.62863 -2.53274
rtoes -12.6457
lfemur -21.8435 -2.01034 -16.1026
ltibia 17.9162
lfoot -3.22237 5.67347
ltoes -24.2991
1059
root -13.8589 17.7398 0.218076 -341.785 102.78 -348.645
lowerback 4.40095 1.5898 -2.55329
upperback 1.30561 2.02271 -0.619486
thorax -1.18992 1.02361 0.685633
lowerneck -20.795 2.01012 5.03862
upperneck 44.8067 2.66583 2.93493
head 21.9725 3.11053 1.6318
rclavicle -2.18663e-014 4.77083e-015
rhumerus -42.4949 2.57015 -75.0755
rradius 47.1649
rwrist 0.576915
rhand -13.9271 16.2065
rfingers 7.12502
rthumb 12.1994 -13.4177
lclavicle -2.18663e-014 4.77083e-015
lhumerus -31.971 -13.1728 83.5748
lradius 38.0439
lwrist 19.6619
lhand -17.6286 54.9927
lfingers 7.12502
lthumb 8.62874 84.7964
rfemur -1.36996 -4.35378 19.4076
rtibia 38.2612
rfoot -1.38124 -3.38816
rtoes -14.7956
lfemur -23.1478 -2.04182 -15.5698
ltibia 18.8341
lfoot -3.14058 5.80258
ltoes -24.7572
1060
root -14.0078 17.6922 0.343927 -341.136 102.751 -348.157
lowerback 4.17471 1.81648 -2.04797
upperback 1.20238 2.34734 -0.677756
thorax -1.15742 1.1843 0.331306
lowerneck -20.8721 2.10242 5.0495
upperneck 44.6251 2.85417 2.78609
head 21.8621 3.15572 1.58451
rclavicle 1.95803e-014 0
rhumerus -41.7693 3.45641 -75.3383
rradius 47.2609
rwrist 0.915942
rhand -14.2827 16.6663
rfingers 7.12502
rthumb 11.8565 -12.9781
lclavicle 1.95803e-014 0
lhumerus -32.147 -13.4114 83.4131
lradius 38.9163
lwrist 20.0965
lhand -18.0066 55.1411
lfingers 7.12502
lthumb 8.26401 84.9594
rfemur 0.776158 -2.83815 19.8376
rtibia 33.4514
rfoot -0.488477 -2.5966
rtoes -20.4041
lfemur -24.4226 -2.23536 -14.9999
ltibia 19.6417
lfoot -2.90204 6.08602
ltoes -25.2699
1061
root -14.1743 17.6479 0.481353 -340.781 102.738 -347.971
lowerback 4.18168 2.04037 -1.59255
upperback 1.10715 2.66029 -0.721513
thorax -1.24321 1.33995 0.0133169
lowerneck -21.0114 2.17057 4.97645
upperneck 44.4665 3.03995 2.62903
head 21.7873 3.18289 1.55109
rclavicle -6.05299e-014 1.98785e-014
rhumerus -41.0285 4.52136 -75.5374
rradius 47.5951
rwrist 1.18799
rhand -14.4829 16.9786
rfingers 7.12502
rthumb 11.6634 -12.6768
lclavicle -6.05299e-014 1.98785e-014
lhumerus -32.1508 -13.4433 83.222
lradius 39.5495
lwrist 20.2892
lhand -18.4666 54.9524
lfingers 7.12502
lthumb 7.82002 84.7878
rfemur 2.85888 -1.70392 20.2731
rtibia 28.6892
rfoot -1.76645 -2.13683
rtoes -26.3999
lfemur -25.7241 -2.80916 -14.3439
ltibia 20.3407
lfoot -2.57122 6.72813
ltoes -24.824
1062
root -14.3458 17.6126 0.620188 -340.526 102.674 -347.853
lowerback 4.31234 2.31872 -0.990368
upperback 1.00634 3.04987 -0.882815
thorax -1.38451 1.53321 -0.516605
lowerneck -21.1779 2.20102 5.10422
upperneck 44.3399 3.12688 2.36603
head 21.7566 3.19633 1.40716
rclavicle -3.51849e-014 1.66979e-014
rhumerus -40.446 5.43167 -75.8088
rradius 48.1772
rwrist 1.23179
rhand -14.6539 17.1166
rfingers 7.12502
rthumb 11.4986 -12.5481
lclavicle -3.51849e-014 1.66979e-014
lhumerus -32.0829 -13.5117 82.8571
lradius 40.1836
lwrist 20.1609
lhand -18.363 54.8448
lfingers 7.12502
lthumb 7.91999 84.6764
rfemur 4.87184 -1.29391 20.6334
rtibia 24.1167
rfoot -3.05836 -2.05864
rtoes -29.1154
lfemur -26.8914 -3.74017 -13.595
ltibia 20.9235
lfoot -2.40505 7.66438
ltoes -23.1858
